<svg data-v-fde0c5aa="" xmlns="http://www.w3.org/2000/svg" viewBox="0 0 300 300" class="iconAbove"><!----><defs data-v-fde0c5aa=""><!----></defs><rect data-v-fde0c5aa="" fill="transparent" x="0" y="0" width="300px" height="300px" class="logo-background-square"></rect><defs data-v-fde0c5aa=""><!----></defs><g data-v-fde0c5aa="" id="e27289ad-21c1-46b6-b261-05f0bbc04409" fill="#000000" transform="matrix(6.340238611950665,0,0,6.340238611950665,68.33772595249272,170.53923385049362)"><path d="M0.52 14L0.52 14Q0.25 14 0.25 13.73L0.25 13.73L0.25 11.82L0.25 11.82Q0.25 11.63 0.39 11.49L0.39 11.49L2.90 9.24L2.90 9.24Q2.94 9.20 2.94 9.17L2.94 9.17L2.94 9.17Q2.94 9.10 2.84 9.10L2.84 9.10L0.62 9.10L0.62 9.10Q0.35 9.10 0.35 8.83L0.35 8.83L0.35 6.99L0.35 6.99Q0.35 6.72 0.62 6.72L0.62 6.72L5.91 6.72L5.91 6.72Q6.17 6.72 6.17 6.99L6.17 6.99L6.17 8.90L6.17 8.90Q6.17 9.09 6.02 9.23L6.02 9.23L3.40 11.48L3.40 11.48Q3.36 11.52 3.36 11.55L3.36 11.55L3.36 11.55Q3.36 11.62 3.46 11.62L3.46 11.62L6.02 11.62L6.02 11.62Q6.29 11.62 6.29 11.89L6.29 11.89L6.29 13.73L6.29 13.73Q6.29 14 6.02 14L6.02 14L0.52 14ZM8.47 6.43L8.47 6.43Q7.80 6.43 7.38 6.02L7.38 6.02L7.38 6.02Q6.96 5.61 6.96 4.96L6.96 4.96L6.96 4.96Q6.96 4.30 7.38 3.89L7.38 3.89L7.38 3.89Q7.80 3.49 8.47 3.49L8.47 3.49L8.47 3.49Q9.16 3.49 9.57 3.89L9.57 3.89L9.57 3.89Q9.98 4.30 9.98 4.96L9.98 4.96L9.98 4.96Q9.98 5.61 9.57 6.02L9.57 6.02L9.57 6.02Q9.16 6.43 8.47 6.43L8.47 6.43ZM7.42 14L7.42 14Q7.15 14 7.15 13.73L7.15 13.73L7.15 6.99L7.15 6.99Q7.15 6.72 7.42 6.72L7.42 6.72L9.52 6.72L9.52 6.72Q9.79 6.72 9.79 6.99L9.79 6.99L9.79 13.73L9.79 13.73Q9.79 14 9.52 14L9.52 14L7.42 14ZM15.19 6.61L15.19 6.61Q15.89 6.61 16.45 6.92L16.45 6.92L16.45 6.92Q17.01 7.22 17.34 7.82L17.34 7.82L17.34 7.82Q17.67 8.41 17.67 9.23L17.67 9.23L17.67 13.73L17.67 13.73Q17.67 14 17.40 14L17.40 14L15.30 14L15.30 14Q15.04 14 15.04 13.73L15.04 13.73L15.04 9.80L15.04 9.80Q15.04 9.38 14.82 9.12L14.82 9.12L14.82 9.12Q14.60 8.86 14.25 8.86L14.25 8.86L14.25 8.86Q13.89 8.86 13.67 9.12L13.67 9.12L13.67 9.12Q13.45 9.38 13.45 9.80L13.45 9.80L13.45 13.73L13.45 13.73Q13.45 14 13.19 14L13.19 14L11.09 14L11.09 14Q10.82 14 10.82 13.73L10.82 13.73L10.82 6.99L10.82 6.99Q10.82 6.72 11.09 6.72L11.09 6.72L13.19 6.72L13.19 6.72Q13.45 6.72 13.45 6.99L13.45 6.99L13.45 7.35L13.45 7.35Q13.45 7.42 13.49 7.44L13.49 7.44L13.49 7.44Q13.52 7.46 13.57 7.41L13.57 7.41L13.57 7.41Q14.10 6.61 15.19 6.61L15.19 6.61ZM22.04 14.11L22.04 14.11Q20.85 14.11 19.96 13.53L19.96 13.53L19.96 13.53Q19.08 12.95 18.68 11.91L18.68 11.91L18.68 11.91Q18.40 11.20 18.40 10.32L18.40 10.32L18.40 10.32Q18.40 9.45 18.68 8.74L18.68 8.74L18.68 8.74Q19.07 7.74 19.96 7.17L19.96 7.17L19.96 7.17Q20.86 6.61 22.04 6.61L22.04 6.61L22.04 6.61Q23.23 6.61 24.14 7.20L24.14 7.20L24.14 7.20Q25.06 7.80 25.38 8.69L25.38 8.69L25.38 8.69Q25.49 8.99 25.51 9.17L25.51 9.17L25.51 9.20L25.51 9.20Q25.51 9.42 25.27 9.46L25.27 9.46L23.21 9.79L23.21 9.79Q23.20 9.79 23.18 9.79L23.18 9.79L23.18 9.79Q23.16 9.80 23.13 9.79L23.13 9.79L23.13 9.79Q22.95 9.79 22.92 9.62L22.92 9.62L22.86 9.42L22.86 9.42Q22.79 9.18 22.56 9.02L22.56 9.02L22.56 9.02Q22.33 8.86 22.02 8.86L22.02 8.86L22.02 8.86Q21.46 8.86 21.22 9.37L21.22 9.37L21.22 9.37Q21.06 9.72 21.06 10.33L21.06 10.33L21.06 10.33Q21.06 10.91 21.21 11.30L21.21 11.30L21.21 11.30Q21.45 11.86 22.02 11.86L22.02 11.86L22.02 11.86Q22.61 11.86 22.83 11.28L22.83 11.28L22.83 11.28Q22.85 11.24 22.86 11.22L22.86 11.22L22.86 11.22Q22.86 11.20 22.86 11.20L22.86 11.20L22.86 11.20L22.86 11.20Q22.88 11.13 22.97 11.05L22.97 11.05L22.97 11.05Q23.06 10.96 23.17 10.98L23.17 10.98L25.24 11.31L25.24 11.31Q25.51 11.35 25.47 11.61L25.47 11.61L25.47 11.61Q25.44 11.80 25.38 11.98L25.38 11.98L25.38 11.98Q25.02 13.01 24.12 13.56L24.12 13.56L24.12 13.56Q23.21 14.11 22.04 14.11L22.04 14.11Z"></path></g><defs data-v-fde0c5aa=""><linearGradient data-v-fde0c5aa="" gradientTransform="rotate(25)" id="a76f6b5a-aac9-49da-9268-2a3a02c2b6b9" x1="0%" y1="0%" x2="100%" y2="0%"><stop data-v-fde0c5aa="" offset="0%" stop-color="#0D7CE9" stop-opacity="1"></stop><stop data-v-fde0c5aa="" offset="100%" stop-color="#15CFF1" stop-opacity="1"></stop></linearGradient></defs><g data-v-fde0c5aa="" id="e939ecf2-e8d9-42a2-81ee-69de8eec197e" stroke="none" fill="url(#a76f6b5a-aac9-49da-9268-2a3a02c2b6b9)" transform="matrix(1.8447488584474887,0,0,1.8447488584474887,68.5543359643248,25.24200913242009)"><path d="M49.8 57.3L46 68.2V68H15.7l16.8 13h23.1l9.8-30.3-10.8-7.8z"></path><path d="M53.7 39.6l14 10.2-9.5 29.3L75 66.9l7.1-22-25.7-18.6-10.5 7.6z"></path><path d="M81.4 41.9L75 22.2 56.3 8.7 30.8 27.2l4 12.4 21.6-15.8z"></path><path d="M34 42.8l-5.4-16.6L53.2 8H32.5L13.8 21.8 23.5 52h13.2L34 42.8z"></path><path d="M39.4 54H22.1l-9.5-29.1-6.4 19.4L13.4 66h31.5L49 54z"></path></g><!----></svg>